<svg id="visual" viewBox="0 0 900 200" width="900" height="200" xmlns="http://www.w3.org/2000/svg" xmlns:xlink="http://www.w3.org/1999/xlink" version="1.1"><rect x="0" y="0" width="900" height="200" fill="#1d1d1b"></rect><path d="M0 117L21.5 110.2C43 103.3 86 89.7 128.8 93.2C171.7 96.7 214.3 117.3 257.2 117.5C300 117.7 343 97.3 385.8 92C428.7 86.7 471.3 96.3 514.2 102.3C557 108.3 600 110.7 642.8 104C685.7 97.3 728.3 81.7 771.2 71.5C814 61.3 857 56.7 878.5 54.3L900 52L900 201L878.5 201C857 201 814 201 771.2 201C728.3 201 685.7 201 642.8 201C600 201 557 201 514.2 201C471.3 201 428.7 201 385.8 201C343 201 300 201 257.2 201C214.3 201 171.7 201 128.8 201C86 201 43 201 21.5 201L0 201Z" fill="#1a1a18" stroke-linecap="round" stroke-linejoin="miter"></path></svg>