<svg id="visual" viewBox="0 0 900 200" width="900" height="200" xmlns="http://www.w3.org/2000/svg" xmlns:xlink="http://www.w3.org/1999/xlink" version="1.1"><rect x="0" y="0" width="900" height="200" fill="#1d1d1b"></rect><path d="M0 141L21.5 128.8C43 116.7 86 92.3 128.8 88C171.7 83.7 214.3 99.3 257.2 109.8C300 120.3 343 125.7 385.8 119.8C428.7 114 471.3 97 514.2 92.7C557 88.3 600 96.7 642.8 95C685.7 93.3 728.3 81.7 771.2 78C814 74.3 857 78.7 878.5 80.8L900 83L900 0L878.5 0C857 0 814 0 771.2 0C728.3 0 685.7 0 642.8 0C600 0 557 0 514.2 0C471.3 0 428.7 0 385.8 0C343 0 300 0 257.2 0C214.3 0 171.7 0 128.8 0C86 0 43 0 21.5 0L0 0Z" fill="#1a1a18" stroke-linecap="round" stroke-linejoin="miter"></path></svg>