<svg xmlns="http://www.w3.org/2000/svg" width="422" height="343" viewBox="0 0 422 343" xmlns:xlink="http://www.w3.org/1999/xlink">
  <defs>
    <polygon id="a" points=".139 10.39 22.614 10.39 24.206 .153 6.058 .557"/>
    <polygon id="c" points=".067 10.398 25.507 11.276 27.255 .154 6.13 1.184"/>
    <polygon id="e" points=".225 6.087 .876 10.889 26.157 10.452 27.758 .359 3.489 .716"/>
    <polygon id="g" points="1.213 11.016 15.906 11.016 24.313 12.044 26.205 .048 .076 1.184"/>
    <polygon id="i" points=".295 .447 1.671 11.335 22.799 10.327 24.096 1.801 16.297 .447 .6 .447"/>
    <polygon id="k" points="6.673 .6 .271 10.952 23.24 10.952 24.723 .115 6.264 .6"/>
    <polygon id="m" points="4.204 4.154 21.289 .533 20.657 9.741 .485 10.079"/>
    <polygon id="o" points="4.159 4.272 21.209 .323 20.104 6.711 .079 10.755"/>
    <polygon id="q" points="6.979 1.163 .562 11.617 26.799 10.864 28.282 .017 6.7 1.163"/>
    <polygon id="s" points=".247 7.372 .929 12.645 26.376 10.757 27.963 .405 3.35 2.099"/>
    <polygon id="u" points=".548 1.048 1.837 11.28 15.992 11.28 25.127 10.5 26.567 .337 .686 .929"/>
    <polygon id="w" points=".41 1.413 1.64 11.642 10.672 11.538 22.862 9.81 24.728 .456 .627 1.163"/>
    <polygon id="y" points="18.683 38.42 34.29 33.498 34.29 19.468 19.712 .166 .326 21.566 .326 38.42 18.683 38.42"/>
    <polygon id="A" points="7.721 44.438 34.166 36.098 34.166 8.549 27.835 .166 .202 30.669 .202 44.438 7.721 44.438"/>
    <polygon id="C" points=".094 40.942 34.058 30.231 34.058 .314 .094 37.806 .094 40.942"/>
    <polygon id="E" points="29.733 23.776 .038 33.141 29.733 .361 29.733 23.776"/>
    <polygon id="G" points="17.736 38.792 34.301 33.568 34.301 19.174 19.946 .166 .032 22.149 .032 38.792 17.736 38.792"/>
    <polygon id="I" points="32.461 31.513 34.725 30.799 11.59 .166 .483 12.427 .483 31.513 32.461 31.513"/>
    <polygon id="K" points="30.658 32.081 34.357 30.915 34.357 30.312 11.59 .166 .087 12.864 .087 32.081 30.658 32.081"/>
    <polygon id="M" points="6.731 44.866 34.353 36.155 34.353 8.311 28.202 .166 .084 31.205 .084 44.866 6.731 44.866"/>
    <polygon id="O" points=".568 40.201 34.839 29.393 34.839 .116 34.327 .116 .568 37.381 .568 40.201"/>
    <polygon id="Q" points="29.68 23.793 .038 33.141 29.68 .419 29.68 23.793"/>
    <polygon id="S" points="0 69.857 66.575 69.857 66.575 .216 0 .216"/>
    <polygon id="U" points="0 77.957 42.748 77.957 42.748 .491 0 .491 0 77.957"/>
  </defs>
  <g fill="none" fill-rule="evenodd">
    <g transform="translate(-1)">
      <path fill="#F9F9FD" d="M15.3919051,135.100421 L72.5268737,75.5168485 C73.0947211,74.9242891 74.0441702,75.6210015 73.6483977,76.3399601 L53.2413165,113.518515 L64.9302691,115.617753 L64.457569,116.621869 L119.126804,126.828857 L98.4292201,164.677833 L65.1023441,150.309784 L15.7067011,136.259248 C15.1985738,136.114648 15.0264988,135.481641 15.3919051,135.100421"/>
      <polygon fill="#72767D" points="47.985 103.325 45.345 106.091 44.688 105.466 47.328 102.699"/>
      <polygon fill="#72767D" points="49.395 104.669 46.756 107.435 46.099 106.81 48.738 104.043"/>
      <polyline fill="#EFF1FB" points="87.046 132.927 94.995 124.336 92.511 122.041 64.461 116.62 60.407 124.932"/>
      <polygon fill="#E3E7F9" points="60.406 124.932 60.644 125.164 65.207 116.771 64.931 115.618 60.565 124.419"/>
      <polygon fill="#E3E7F9" points="60.406 124.932 47.662 121.875 60.565 124.41"/>
      <polygon fill="#E3E7F9" points="94.57 161.524 94.57 155.566 16.99 136.612"/>
      <polygon fill="#E3E7F9" points="46.383 126.832 72 155.435 53.046 136.324"/>
      <polygon fill="#E3E7F9" points="53.241 113.519 52.199 111.871 73.648 76.339"/>
      <polygon fill="#8EA1E1" points="30.789 232.575 33.837 233.598 34.206 228.938 31.16 227.915"/>
      <polygon fill="#738BD7" points="50.653 188.137 34.106 229.025 33.735 233.684 111.425 161.699 117.659 138.447 98.408 128.624"/>
      <polygon fill="#36393F" points="51.024 183.478 31.057 228.002 34.106 229.025 110.116 158.469 110.978 130.403 98.778 123.965"/>
      <g fill="#2B2C2D" transform="translate(40.488 168.87)">
        <polygon points="26.455 .997 49.641 2.835 50.416 2.115 27.045 .262"/>
        <polygon points="23.822 4.278 46.176 6.05 46.952 5.331 24.412 3.543"/>
        <polygon points="21.189 7.559 42.712 9.266 43.488 8.547 21.779 6.824"/>
        <polygon points="18.556 10.841 39.249 12.482 40.024 11.762 19.146 10.105"/>
        <polygon points="15.923 14.122 35.785 15.697 36.56 14.977 16.513 13.386"/>
        <polygon points="13.553 17.424 32.32 18.913 33.095 18.193 13.887 16.669"/>
        <polygon points="12.062 20.796 28.857 22.128 29.632 21.408 12.396 20.041"/>
        <polygon points="10.572 24.167 25.392 25.343 26.169 24.623 10.906 23.413"/>
        <polygon points="9.081 27.54 21.929 28.559 22.704 27.839 9.415 26.784"/>
        <polygon points="7.59 30.912 18.464 31.775 19.239 31.055 7.924 30.157"/>
        <polygon points="6.099 34.283 15.001 34.989 15.776 34.269 6.433 33.529"/>
        <polygon points="4.609 37.656 11.536 38.205 12.312 37.485 4.943 36.9"/>
        <polygon points="3.117 41.028 8.072 41.421 8.848 40.701 3.452 40.273"/>
        <polygon points="1.627 44.399 4.608 44.636 5.383 43.916 1.961 43.645"/>
        <polygon points=".136 47.771 1.144 47.851 1.92 47.131 .47 47.016"/>
      </g>
      <polygon fill="#EFF1FB" points="56.075 165.123 99.267 168.549 103.386 164.712 86.069 159.103"/>
      <polygon fill="#2B2C2D" points="99.268 168.549 100.112 163.671 103.386 164.712"/>
      <polygon fill="#8EA1E1" points="117.053 131.042 142.022 .099 96.789 80.259 97.057 81.301 102.415 82.682 100.423 86.264 94.409 84.466 60.987 143.716 36.924 200.419 41.442 201.003 116.02 140.267 114.418 133.047 116.282 131.035"/>
      <polygon fill="#738BD7" points="113.97 119.709 121.309 81.542 129.21 67.449 117.056 131.042"/>
      <polygon fill="#A9BBED" points="96.796 80.251 97.059 81.301 102.415 82.682 100.423 86.264 94.415 84.468 60.983 143.717 36.92 200.42 41.584 200.79 67.878 146.609 124.469 44.815 142.019 .1"/>
      <polyline fill="#738BD7" points="103.71 82.048 103.194 82.914 97.063 81.336 96.785 80.246"/>
      <path fill="#738BD7" d="M107.677643 102.790156L91.3244464 131.502998 91.2839581 131.575804 89.557135 152.142471 88.6886625 162.476869 89.4660365 162.542597 90.3851194 151.604516 92.0471613 131.810401 108.099733 103.321032C107.957012 103.146096 107.817328 102.968126 107.677643 102.790156M105.661127 93.6311685L99.3125721 104.778567C99.4411222 105.000018 99.572709 105.220458 99.7032835 105.440899L105.893934 94.4552913C105.817007 94.1802467 105.744128 93.9041908 105.661127 93.6311685"/>
      <polygon fill="#323132" points="103.2 82.916 101.208 86.498 114.169 133.396 116.318 131.081"/>
      <polygon fill="#36393F" points="97.068 81.334 95.179 84.695 101.214 86.499 103.206 82.917"/>
      <polygon fill="#697EC4" points="116.318 131.081 103.2 82.917 103.714 82.048 117.056 131.043"/>
      <path fill="#738BD7" d="M108.99179 101.68664L121.407506 82.3728423C121.374104 82.0876857 121.345762 81.8025291 121.315396 81.5183837L108.585896 101.146663C108.718494 101.328678 108.855142 101.507659 108.99179 101.68664M89.5093589 152.269477L69.7247843 171.211155 65.3824215 181.613304C65.3824215 181.613304 88.8696448 162.739375 88.6864356 162.521969 88.5022141 162.304562 89.5093589 152.269477 89.5093589 152.269477"/>
      <polygon fill="#E3E7F9" points="78.647 299.241 155.456 220.778 208.771 153.832 151.157 97.526 118.997 126.908 37.927 259.331 12.834 324.325"/>
      <polygon fill="#F9F9FD" points="76.642 300.133 201.368 154.161 145.993 87.017 112.604 118.527 18.06 270.113 .001 341.783"/>
      <polygon fill="#E3E7F9" points="80.385 170.232 103.276 173.702 103.335 173.317 103.073 173.605 102.117 172.738 80.834 169.513"/>
      <polygon fill="#E3E7F9" points="103.335 173.317 103.597 173.029 87.661 158.571 87.242 159.243 102.117 172.739 103.073 173.605"/>
      <polygon fill="#E3E7F9" points="128.441 178.267 128.665 178.358 128.706 177.615"/>
      <polygon fill="#E3E7F9" points="167.3 194.031 167.834 193.407 131.147 178.525 128.763 178.398"/>
      <polygon fill="#E3E7F9" points="128.734 177.546 128.705 177.615 128.934 177.628"/>
      <polygon fill="#E3E7F9" points="123.457 194.085 123.287 194.352 155.426 207.928 155.957 207.306 111.628 188.581 111.324 189.298 122.559 194.045 122.8 193.668"/>
      <polygon fill="#E3E7F9" points="92.373 185.465 92.21 185.741 101.682 187.375 101.815 186.606 73.243 181.679 72.796 182.393 91.387 185.599 91.702 185.067"/>
      <path fill="#E3E7F9" d="M97.0875413 233.995964L90.161017 231.076648C83.94911 228.457657 77.4750417 226.325049 70.9179725 224.736464L69.2862968 224.340076 68.9411346 224.920501 68.2710544 224.524114 68.4937396 224.148961 49.598894 219.568254 49.1646577 220.265977 70.7347633 225.493848C77.250332 227.072321 83.6849243 229.192794 89.8573553 231.794596L123.072889 245.792549 123.604297 245.170665 97.7920365 234.293255 97.7232065 234.400442 97.0875413 233.995964zM83.192385 240.469019C77.1242112 237.91171 70.8039982 235.815506 64.4038209 234.240066L43.6363945 229.124438 43.2031704 229.820139 64.217575 234.995428C70.5772641 236.562778 76.8590133 238.644826 82.8887232 241.186966L115.327895 254.857293 115.859303 254.235409 83.192385 240.469019z"/>
      <polygon fill="#E3E7F9" points="179.037 180.296 128.934 177.627 128.706 177.615 128.665 178.359 128.663 178.393 128.763 178.398 131.147 178.525 178.399 181.041"/>
      <polygon fill="#E3E7F9" points="123.457 194.085 122.8 193.668 122.559 194.045 97.066 233.982 97.087 233.996 97.724 234.401 97.793 234.294 123.287 194.352"/>
      <polygon fill="#E3E7F9" points="68.941 224.921 69.287 224.34 92.21 185.74 92.373 185.464 91.703 185.068 91.387 185.599 68.494 224.148 68.27 224.524"/>
      <polygon fill="#FFFFFF" points="103.219 173.251 98.995 140.433 112.604 118.527 129.761 114.578 121.154 170.134"/>
      <g transform="translate(98.73 114.036)">
        <g transform="translate(5.705 6.916)">
          <mask id="b" fill="white">
            <use xlink:href="#a"/>
          </mask>
          <polygon fill="#B9C8EB" points="31.01 1.264 -13.71 10.39 -14.016 9.683 30.704 .557" mask="url(#b)"/>
        </g>
        <g transform="translate(1.712 13.256)">
          <mask id="d" fill="white">
            <use xlink:href="#c"/>
          </mask>
          <polygon fill="#B9C8EB" points="38.119 1.631 -6.685 10.758 -6.991 10.051 37.813 .925" mask="url(#d)"/>
        </g>
        <g transform="translate(0 20.173)">
          <mask id="f" fill="white">
            <use xlink:href="#e"/>
          </mask>
          <polygon fill="#B9C8EB" points="42.773 1.283 -1.975 10.41 -2.282 9.703 1.152 9.002 42.467 .576" mask="url(#f)"/>
        </g>
        <g transform="translate(.57 26.513)">
          <mask id="h" fill="white">
            <use xlink:href="#g"/>
          </mask>
          <polygon fill="#B9C8EB" points="44.295 1.891 -.291 11.016 -.596 10.31 43.99 1.184" mask="url(#h)"/>
        </g>
        <g transform="translate(1.141 35.159)">
          <mask id="j" fill="white">
            <use xlink:href="#i"/>
          </mask>
          <polygon fill="#B9C8EB" points="40.894 1.153 -3.42 10.28 -3.723 9.573 40.591 .447" mask="url(#j)"/>
        </g>
        <g transform="translate(5.135 6.916)">
          <mask id="l" fill="white">
            <use xlink:href="#k"/>
          </mask>
          <polygon fill="#E3E7F9" points="31.762 2.119 -12.844 11.505 -13.122 10.539 31.484 1.153" mask="url(#l)"/>
        </g>
        <g transform="translate(9.699)">
          <mask id="n" fill="white">
            <use xlink:href="#m"/>
          </mask>
          <polygon fill="#B9C8EB" points="24.852 .706 -19.656 10.091 -19.968 9.385 24.54 0" mask="url(#n)"/>
        </g>
        <g transform="translate(9.699)">
          <mask id="p" fill="white">
            <use xlink:href="#o"/>
          </mask>
          <polygon fill="#E3E7F9" points="36.228 -.762 -8.28 8.623 -8.558 7.657 35.95 -1.729" mask="url(#p)"/>
        </g>
        <g transform="translate(.57 13.256)">
          <mask id="r" fill="white">
            <use xlink:href="#q"/>
          </mask>
          <polygon fill="#E3E7F9" points="40.43 2.119 -4.285 11.505 -4.564 10.539 40.15 1.153" mask="url(#r)"/>
        </g>
        <g transform="translate(0 19.02)">
          <mask id="t" fill="white">
            <use xlink:href="#s"/>
          </mask>
          <polygon fill="#E3E7F9" points="43.065 3.066 -1.57 12.451 -1.849 11.485 42.787 2.099" mask="url(#t)"/>
        </g>
        <g transform="translate(0 27.09)">
          <mask id="v" fill="white">
            <use xlink:href="#u"/>
          </mask>
          <polygon fill="#E3E7F9" points="41.897 2.695 -2.575 12.08 -2.853 11.114 41.618 1.729" mask="url(#v)"/>
        </g>
        <g transform="translate(1.141 34.582)">
          <mask id="x" fill="white">
            <use xlink:href="#w"/>
          </mask>
          <polygon fill="#E3E7F9" points="42.194 2.142 -2.007 11.527 -2.282 10.538 41.918 1.153" mask="url(#x)"/>
        </g>
      </g>
      <g transform="translate(98.73 75.004)">
        <polygon fill="#C9D2F0" points="4.282 98.432 6.48 89.211 15.585 43.484 13.744 43.974 .127 65.974" opacity=".2"/>
        <polygon fill="#F9F9FD" points="95.439 3.573 114.759 54.462 77.494 50.383 72.552 10.483 73.593 3.051"/>
        <polyline fill="#EFF1FB" points="77.624 49.926 98.885 37.604 91.807 15.402 97.319 13.021 74.763 15.699"/>
        <path fill="#FFFFFF" d="M73.6011962,3.7525655 L73.6315788,3.75764298 C73.9516088,3.80740233 74.2756897,3.83177425 74.5997707,3.82771226 L95.4391893,3.57282255 L70.2115119,0.83402756 L51.1960615,0.151613679 L51.1808702,0.149582685 C51.1697299,0.147551692 51.1575768,0.151613679 51.1454238,0.149582685 L51.0249062,0.145520698 L51.0603526,0.151613679 C50.7555139,0.153644673 50.4759941,0.335418608 50.3716805,0.631943688 L48.3654168,6.31060205 L48.4950492,8.52743167 L75.8029212,36.0392722 L74.1409936,4.35983261 C74.1247895,4.05518356 73.8999583,3.80435584 73.6011962,3.7525655"/>
        <path fill="#FFFFFF" d="M74.5996694,3.82740761 L95.439088,3.57251791 L70.2114106,0.833722911 L51.0248049,0.145216049 L73.6314775,3.75733833 C73.9515075,3.80709768 74.2755884,3.8314696 74.5996694,3.82740761"/>
        <path fill="#E3E7F9" d="M48.3654168,6.31060205 L50.3706678,0.631943688 C50.4901726,0.295814231 50.8304576,0.0927148621 51.1808702,0.149582685 L73.5930942,3.74951901 C73.8959073,3.79826285 74.1247895,4.05213707 74.1409936,4.35983261 L75.8029212,36.0392722 L48.4950492,8.52743167 L48.3654168,6.31060205 Z"/>
        <polygon fill="#F9F9FD" points="114.76 54.462 94.696 48.129 77.624 49.927 29.64 103.518 105.099 79.423"/>
        <polyline fill="#E3E7F9" points="114.135 52.823 110.873 44.227 100.686 80.857"/>
        <polygon fill="#FFFFFF" points="29.64 103.517 100.901 80.581 77.624 49.926"/>
      </g>
      <g transform="translate(128.578 124.75)">
        <g transform="translate(28.428)">
          <mask id="z" fill="white">
            <use xlink:href="#y"/>
          </mask>
          <polygon fill="#B9C8EB" points="33.441 38.42 .326 -6.147 1.174 -6.767 34.29 37.801" mask="url(#z)"/>
        </g>
        <g transform="translate(20.305)">
          <mask id="B" fill="white">
            <use xlink:href="#A"/>
          </mask>
          <polygon fill="#B9C8EB" points="33.317 44.438 .202 -.128 1.05 -.748 34.166 43.818" mask="url(#B)"/>
        </g>
        <polygon fill="#B9C8EB" points="38.702 41.381 12.262 5.89 13.11 5.27 39.577 40.989"/>
        <g transform="translate(3.921 11.068)">
          <mask id="D" fill="white">
            <use xlink:href="#C"/>
          </mask>
          <polygon fill="#B9C8EB" points="33.209 45.407 .094 .839 .943 .22 34.058 44.787" mask="url(#D)"/>
        </g>
        <g transform="translate(0 20.124)">
          <mask id="F" fill="white">
            <use xlink:href="#E"/>
          </mask>
          <polygon fill="#B9C8EB" points="28.884 42.369 -4.231 -2.198 -3.382 -2.818 29.733 41.749" mask="url(#F)"/>
        </g>
        <g transform="translate(28.194)">
          <mask id="H" fill="white">
            <use xlink:href="#G"/>
          </mask>
          <polygon fill="#E3E7F9" points="33.457 38.792 .032 -5.547 .875 -6.172 34.301 38.167" mask="url(#H)"/>
        </g>
        <g transform="translate(36.55)">
          <mask id="J" fill="white">
            <use xlink:href="#I"/>
          </mask>
          <polygon fill="#B9C8EB" points="33.909 31.513 .483 -12.826 1.328 -13.451 34.754 30.888" mask="url(#J)"/>
        </g>
        <g transform="translate(36.55)">
          <mask id="L" fill="white">
            <use xlink:href="#K"/>
          </mask>
          <polygon fill="#E3E7F9" points="33.513 32.081 .087 -12.258 .932 -12.883 34.357 31.455" mask="url(#L)"/>
        </g>
        <g transform="translate(19.938)">
          <mask id="N" fill="white">
            <use xlink:href="#M"/>
          </mask>
          <polygon fill="#E3E7F9" points="33.509 44.866 .084 .528 .927 -.098 34.353 44.241" mask="url(#N)"/>
        </g>
        <polygon fill="#E3E7F9" points="37.741 41.639 11.818 6.602 12.662 5.977 38.751 41.284"/>
        <g transform="translate(3.046 11.936)">
          <mask id="P" fill="white">
            <use xlink:href="#O"/>
          </mask>
          <polygon fill="#E3E7F9" points="33.994 45.08 .568 .74 1.412 .116 34.839 44.455" mask="url(#P)"/>
        </g>
        <g transform="translate(0 20.124)">
          <mask id="R" fill="white">
            <use xlink:href="#Q"/>
          </mask>
          <polygon fill="#E3E7F9" points="28.836 42.966 -4.59 -1.373 -3.745 -1.998 29.68 42.341" mask="url(#R)"/>
        </g>
      </g>
      <g transform="translate(0 22.195)">
        <polygon fill="#C9D2F0" points="128.238 156.328 199.603 133.389 187.396 117.149" opacity=".2"/>
        <path fill="#8EA1E1" d="M213.652589,105.042187 L199.811865,133.258515"/>
        <polygon fill="#FBB848" points="93.329 189.505 98.009 181.884 95.342 181.006 90.511 188.744"/>
        <polygon fill="#FBB848" points="42.971 263.251 47.652 255.63 45.114 254.55 40.283 262.287"/>
        <g transform="translate(0 250.07)">
          <mask id="T" fill="white">
            <use xlink:href="#S"/>
          </mask>
          <path fill="#EFF1FB" d="M0.000303991307,69.8578349 C0.421838604,69.4680506 66.5754136,0.216051819 66.5754136,0.216051819 L21.867412,54.8435496 L34.8032555,50.9882294 L0.000303991307,69.8578349 Z" mask="url(#T)"/>
        </g>
        <g transform="translate(0 241.97)">
          <mask id="V" fill="white">
            <use xlink:href="#U"/>
          </mask>
          <path fill="#EFF1FB" d="M0.000303991307,77.957247 C-0.0908934009,77.1260448 42.7475616,0.491431833 42.7475616,0.491431833 L6.94447875,53.301624 L8.33878555,44.6200666 L0.000303991307,77.957247 Z" mask="url(#V)"/>
        </g>
        <path fill="#A9BBED" d="M173.875023,68.2976856 L171.662979,63.6172378 L147.463245,58.9378024 L143.245872,69.1582481 L129.572343,95.800252 L116.071076,129.878529 L115.012173,131.617877 L103.355119,150.780074 L101.284938,165.055288 C104.721053,165.68198 108.164262,166.2702 111.61051,166.839184 L128.727247,155.850306 L176.737607,102.421521"/>
        <path fill="#B6C3EC" d="M103.355322,150.780277 L101.285141,165.055491 C104.721256,165.682183 108.164464,166.270402 111.609699,166.839386 L128.72745,155.850509"/>
        <polygon fill="#738BD7" points="148.178 61.546 169.851 65.396 140.575 136.634 117.215 131.744"/>
        <polygon fill="#4E5D94" points="168.807 67.934 148.834 64.386 118.962 132.111 140.575 136.634"/>
        <polygon fill="#738BD7" points="142.931 136.249 170.478 68.318 173.975 101.083"/>
        <polygon fill="#4E5D94" points="146.274 132.463 173.975 101.083 170.854 71.846"/>
        <polygon fill="#738BD7" points="117.353 126.966 143.206 69.256 128.721 93.11"/>
        <polygon fill="#4E5D94" points="138.484 79.78 129.716 94.621 123.709 112.774"/>
        <polygon fill="#8EA1E1" points="171.757 244.479 174.88 245.259 174.88 240.578 171.757 239.798"/>
        <polygon fill="#738BD7" points="188.057 198.555 174.786 240.674 174.786 245.353 246.606 167.355 250.985 143.656 230.993 135.376"/>
        <polygon fill="#36393F" points="188.057 193.874 171.663 239.893 174.786 240.674 245.044 164.235 243.679 136.156 230.993 130.696"/>
        <g fill="#2B2C2D" transform="translate(180.228 178.187)">
          <polygon points="22.636 .842 45.92 .842 46.636 .061 23.165 .061"/>
          <polygon points="20.268 4.325 42.717 4.325 43.434 3.544 20.798 3.544"/>
          <polygon points="17.901 7.808 39.516 7.808 40.232 7.028 18.431 7.028"/>
          <polygon points="15.534 11.291 36.314 11.291 37.031 10.511 16.063 10.511"/>
          <polygon points="13.166 14.775 33.113 14.775 33.829 13.994 13.696 13.994"/>
          <polygon points="11.063 18.259 29.91 18.259 30.627 17.478 11.337 17.478"/>
          <polygon points="9.843 21.742 26.709 21.742 27.425 20.961 10.117 20.961"/>
          <polygon points="8.623 25.225 23.506 25.225 24.224 24.445 8.897 24.445"/>
          <polygon points="7.402 28.708 20.304 28.708 21.021 27.928 7.676 27.928"/>
          <polygon points="6.182 32.192 17.102 32.192 17.819 31.412 6.455 31.412"/>
          <polygon points="4.962 35.676 13.9 35.676 14.617 34.895 5.235 34.895"/>
          <polygon points="3.741 39.159 10.699 39.159 11.415 38.378 4.015 38.378"/>
          <polygon points="2.521 42.643 7.497 42.643 8.214 41.862 2.794 41.862"/>
          <polygon points="1.301 46.126 4.295 46.126 5.011 45.346 1.574 45.346"/>
          <polygon points=".081 49.609 1.093 49.609 1.81 48.829 .354 48.829"/>
        </g>
        <polygon fill="#292A2B" points="191.643 175.155 235.018 175.155 238.823 170.999 221.097 166.771"/>
        <polygon fill="#2B2C2D" points="235.018 175.155 235.474 170.22 238.823 170.999"/>
        <polygon fill="#8EA1E1" points="246.91 133.106 261.442 .437 222.658 84.024 223.009 85.043 228.465 85.998 226.762 89.73 220.619 88.412 191.963 150.194 172.448 208.693 177.002 208.918 246.61 142.394 244.439 135.316 246.14 133.159"/>
        <polygon fill="#738BD7" points="242.934 122.038 247.23 83.365 253.998 68.673 246.913 133.106"/>
        <polygon fill="#A9BBED" points="222.666 84.016 223.012 85.044 228.466 85.998 226.762 89.731 220.624 88.414 191.959 150.195 172.443 208.693 177.128 208.693 199.071 152.535 247.47 46.458 261.439 .439"/>
        <polyline fill="#738BD7" points="229.712 85.262 229.266 86.168 223.021 85.078 222.659 84.012"/>
        <path fill="#738BD7" d="M235.312983 105.650251L221.270611 135.601877 221.235146 135.678821 221.142935 156.342447 221.097336 166.725893 221.876567 166.729943 221.926219 155.741065 222.01539 135.852959 235.776063 106.14634C235.620014 105.983339 235.464979 105.817301 235.312983 105.650251M232.57392 96.668914L227.121329 108.297645C227.268258 108.50823 227.417214 108.717802 227.565157 108.927374L232.870818 97.4727806C232.772528 97.2044876 232.67829 96.9341697 232.57392 96.668914"/>
        <polygon fill="#323132" points="229.267 86.169 227.563 89.902 244.218 135.684 246.179 133.203"/>
        <polygon fill="#36393F" points="223.023 85.075 221.404 88.579 227.57 89.903 229.274 86.17"/>
        <polygon fill="#697EC4" points="246.179 133.203 229.267 86.169 229.712 85.262 246.913 133.108"/>
        <path fill="#738BD7" d="M236.536143 104.444957L247.394712 84.1863024C247.338981 83.902823 247.287302 83.6213684 247.235624 83.3399138L236.089276 103.938744C236.235191 104.109844 236.386174 104.276894 236.536143 104.444957M221.105949 156.472746L202.863431 176.945023 199.355371 187.670669C199.355371 187.670669 221.297464 166.973634 221.09683 166.771149 220.896195 166.568663 221.105949 156.472746 221.105949 156.472746"/>
        <polyline fill="#4E5D94" points="246.606 167.355 245.044 164.235 247.651 141.524 250.774 142.303 246.565 167.548"/>
        <path fill="#F9F9FD" d="M357.507254,163.064858 L276.966784,143.759909 L268.187515,150.585688 L249.450504,141.653049 L221.373867,158.239633 L221.333335,166.771351 L354.109645,198.349947 C354.643656,198.4765 355.205027,198.314512 355.587042,197.923715 L423.7348,128.367988 C424.364062,127.72611 423.588885,126.705584 422.801547,127.138903 L357.507254,163.064858 Z"/>
        <polygon fill="#EFF1FB" points="270.562 158.234 326.879 170.199 336.872 158.164 276.955 143.76"/>
        <polygon fill="#E3E7F9" points="255.692 173.652 255.692 175.006 265.858 167.304 268.29 164.276 276.599 144.094 270.319 142.968 269.386 147.709 263.231 161.944"/>
        <path fill="#F9F9FD" d="M268.254292,161.883356 L276.954523,143.760921 L260.950394,135.830584 L221.118413,158.114092 L221.097134,166.771351 L255.692358,173.663951 C255.692358,173.663951 265.86796,164.945946 265.831481,164.96417 C265.732177,165.014791 268.254292,161.883356 268.254292,161.883356"/>
        <polygon fill="#F9F9FD" points="221.106 156.473 243.679 134.235 268.261 161.88 265.832 164.964"/>
        <polygon fill="#EFF1FB" points="263.512 158.07 248.313 142.993 244.784 146.133 247.485 142.136 243.68 134.235 268.258 161.883"/>
        <polyline fill="#C9D2F0" points="268.261 161.874 268.291 164.277 265.862 167.312 265.832 164.964"/>
        <path fill="#EFF1FB" d="M239.893625,160.160611 L237.951121,153.975697 L248.930274,157.810769 L239.893625,160.160611 Z M261.088913,162.058911 L238.455747,152.540076 L225.86848,153.290284 L237.078666,153.791436 L239.596727,160.674924 L250.21717,158.28256 L250.21109,158.259274 L261.088913,162.058911 Z"/>
        <polygon fill="#C9D2F0" points="223.227 160.247 222.342 160.14 222.622 158.375 223.506 158.482"/>
        <polygon fill="#C9D2F0" points="226.371 160.733 225.487 160.625 225.765 158.861 226.65 158.968"/>
        <polygon fill="#C9D2F0" points="229.515 161.217 228.631 161.11 228.91 159.346 229.795 159.453"/>
        <polygon fill="#C9D2F0" points="232.66 161.702 231.775 161.595 232.054 159.83 232.939 159.938"/>
        <polygon fill="#C9D2F0" points="235.804 162.187 234.919 162.08 235.199 160.315 236.083 160.424"/>
        <polygon fill="#E3E7F9" points="221.106 158.24 265.831 164.979 221.106 156.473"/>
        <path fill="#E3E7F9" d="M241.851025,151.824898 L254.204219,157.717221 L257.21272,153.786981 L248.176071,145.505332 L241.851025,151.824898 Z M254.110995,158.263931 L241.059635,152.03852 L248.248016,144.855354 L257.725452,153.540961 L254.110995,158.263931 Z"/>
        <polygon fill="#E3E7F9" points="257.346 173.813 346.039 178.854 267.184 175.892 332.618 191.782 353.464 198.195 255.692 175.015"/>
        <polygon fill="#F9F9FD" points="327.209 170.669 338.461 156.111 357.264 163.065 356.503 176.349 328.26 173.946"/>
        <polygon fill="#EFF1FB" points="357.264 163.065 354.867 167.04 422.314 127.416"/>
        <polygon fill="#72767D" points="384.025 160.952 380.1 164.76 379.196 163.829 383.12 160.022"/>
        <polygon fill="#72767D" points="385.967 162.951 382.041 166.758 381.137 165.828 385.063 162.02"/>
        <polygon fill="#C9D2F0" points="272.806 143.696 272.008 143.301 272.858 141.73 273.656 142.125"/>
        <polygon fill="#C9D2F0" points="263.113 138.871 262.314 138.477 263.164 136.905 263.963 137.3"/>
        <polygon fill="#E3E7F9" points="326.88 170.199 327.63 169.221 348.571 173.698"/>
        <polygon fill="#E3E7F9" points="221.097 166.771 221.104 164.071 221.091 166.771 255.692 175.015 255.692 173.665"/>
        <polygon fill="#E3E7F9" points="356.238 197.265 423.337 128.778 358.503 192.958"/>
        <path fill="#7289DA" fill-opacity=".9" d="M123.801574,146.275282 C122.982825,146.102157 122.696059,145.327651 123.160153,144.546058 C123.623233,143.765477 124.662883,143.271413 125.481633,143.444538 C126.301396,143.617663 126.588161,144.392169 126.124068,145.173762 C125.659975,145.955356 124.621338,146.448407 123.801574,146.275282 M118.524285,145.158576 C117.704522,144.985451 117.416744,144.210945 117.880837,143.429351 C118.344931,142.647758 119.384581,142.154706 120.204344,142.327831 C121.022081,142.500956 121.309859,143.275463 120.845766,144.057056 C120.381672,144.838649 119.342022,145.331701 118.524285,145.158576 M131.303067,140.818303 C130.041503,138.990874 128.0382,138.616276 128.0382,138.616276 L127.712929,138.779276 C129.791217,139.963815 130.357654,141.168603 130.357654,141.168603 C129.282538,140.122766 128.016921,139.444441 126.722931,139.017197 C125.734959,138.690183 124.729761,138.509971 123.780295,138.420877 C123.693151,138.411766 123.606007,138.406703 123.518863,138.399616 C122.986878,138.335834 121.665529,138.238641 119.75241,138.513008 C119.081603,138.603114 118.675268,138.696257 118.675268,138.696257 C118.675268,138.696257 120.468816,137.928838 123.474277,137.820509 L123.414492,137.638272 C123.414492,137.638272 121.464895,137.176605 118.555698,138.121199 C118.555698,138.121199 114.491334,141.016739 112.049271,145.132253 C112.049271,145.132253 112.166814,147.254299 115.314137,148.017668 C115.314137,148.017668 116.180512,147.562076 116.907052,147.165205 C115.350616,146.294518 115.261445,145.125166 115.261445,145.125166 C115.261445,145.125166 115.350616,145.242607 115.530984,145.427881 C115.546184,145.44408 115.56037,145.458254 115.57557,145.473441 C115.604956,145.503813 115.637381,145.535199 115.671834,145.567596 C115.938333,145.829815 116.208885,146.050524 116.474371,146.23276 C116.935424,146.565849 117.530234,146.923235 118.272986,147.232025 C119.257918,147.643071 120.501242,147.96806 122.022212,148.033867 C122.765977,148.066265 123.575608,148.036905 124.456169,147.924525 C125.065165,147.860742 125.771438,147.739251 126.576002,147.519555 C126.576002,147.519555 125.236413,148.418589 123.053756,148.487434 C123.199672,149.063505 123.388146,149.725632 123.388146,149.725632 C126.637813,150.315877 128.966387,148.711181 128.966387,148.711181 C131.40845,144.595667 131.303067,140.818303 131.303067,140.818303"/>
      </g>
    </g>
    <rect width="422" height="343"/>
  </g>
</svg>
